<?xml version="1.0" encoding="utf-8"?>
<!-- Generator: Adobe Illustrator 16.0.0, SVG Export Plug-In . SVG Version: 6.00 Build 0)  -->
<!DOCTYPE svg PUBLIC "-//W3C//DTD SVG 1.1//EN" "http://www.w3.org/Graphics/SVG/1.1/DTD/svg11.dtd">
<svg version="1.1" id="Layer_1" xmlns="http://www.w3.org/2000/svg" xmlns:xlink="http://www.w3.org/1999/xlink" x="0px" y="0px"
	 width="16px" height="16px" viewBox="0 0 16 16" enable-background="new 0 0 16 16" xml:space="preserve">
<path d="M15.849,13.162L10.688,8l5.162-5.162c0.116-0.117,0.116-0.308-0.001-0.425l-2.263-2.263c-0.117-0.117-0.308-0.117-0.424,0
	L8,5.313L2.838,0.151c-0.118-0.118-0.308-0.117-0.424,0L0.151,2.414c-0.117,0.117-0.118,0.307,0,0.425L5.313,8l-5.162,5.162
	c-0.117,0.117-0.117,0.307,0,0.424l2.263,2.263c0.117,0.117,0.307,0.118,0.425,0.001L8,10.688l5.162,5.162
	c0.116,0.116,0.307,0.116,0.424-0.001l2.263-2.263C15.966,13.469,15.966,13.278,15.849,13.162z"/>
</svg>
 
