<svg xmlns="http://www.w3.org/2000/svg" width="16" height="16" viewBox="0 0 16 16"><path d="M3.9 14H2v-1.9a.1.1 0 0 0-.1-.1H.1a.1.1 0 0 0-.1.1v3.8a.1.1 0 0 0 .1.1h3.8a.1.1 0 0 0 .1-.1v-1.8a.1.1 0 0 0-.1-.1zm12-14h-3.8a.1.1 0 0 0-.1.1v1.8a.1.1 0 0 0 .1.1H14v1.9a.1.1 0 0 0 .1.1h1.8a.1.1 0 0 0 .1-.1V.1a.1.1 0 0 0-.1-.1zM2 2.1V2h1.9a.1.1 0 0 0 .1-.1V.1a.1.1 0 0 0-.1-.1H.1a.1.1 0 0 0-.1.1v3.8a.1.1 0 0 0 .1.1h1.8a.1.1 0 0 0 .1-.1V2.1zm14 13.6a.3.3 0 0 1-.3.3H6.3a.3.3 0 0 1-.3-.3V8.3a.3.3 0 0 1 .3-.3h9.4a.3.3 0 0 1 .3.3v7.4z"/></svg>