<svg xmlns="http://www.w3.org/2000/svg" width="16" height="16" viewBox="0 0 16 16"><path d="M9.028 12.269H5.447A5.492 5.492 0 0 1 0 6.834a5.482 5.482 0 0 1 1.558-3.922 5.472 5.472 0 0 1 3.875-1.671h5.053A5.523 5.523 0 0 1 16 6.754a5.553 5.553 0 0 1-2.783 4.785l1.24 4.436-5.429-3.706zm.587-1.902l1.616 1.104-.283-1.039.8-.297A3.627 3.627 0 0 0 14.1 6.753a3.62 3.62 0 0 0-3.613-3.612H5.45a3.58 3.58 0 0 0-2.528 1.095 3.587 3.587 0 0 0-1.021 2.57 3.594 3.594 0 0 0 3.56 3.561h4.154z"/><path d="M11.372 7.879c.62 0 1.125-.507 1.125-1.124 0-.619-.505-1.125-1.125-1.125-.618 0-1.123.506-1.123 1.125 0 .617.505 1.124 1.123 1.124zm-3.375 0a1.13 1.13 0 0 0 1.125-1.124c0-.619-.507-1.125-1.125-1.125s-1.125.506-1.125 1.125a1.13 1.13 0 0 0 1.125 1.124zm-3.375 0a1.13 1.13 0 0 0 1.125-1.124c0-.619-.507-1.125-1.125-1.125s-1.125.506-1.125 1.125a1.13 1.13 0 0 0 1.125 1.124z"/></svg>