<svg xmlns="http://www.w3.org/2000/svg" width="16" height="16" viewBox="0 0 16 16"><path d="M13 12.85a.15.15 0 0 1-.15.15h-9.7a.15.15 0 0 1-.15-.15v-9.7A.15.15 0 0 1 3.15 3h1.707a.15.15 0 0 0 .15-.15v-1.7A.151.151 0 0 0 4.856 1H1.15a.15.15 0 0 0-.15.15v13.7c0 .083.067.15.15.15h13.7a.15.15 0 0 0 .15-.15v-3.7a.15.15 0 0 0-.15-.15h-1.7a.15.15 0 0 0-.15.15v1.7z"/><path d="M15 1.1a.1.1 0 0 0-.101-.1h-2L7.1 1.001a.099.099 0 0 0-.099.099v1.799c-.002.055.043.1.099.1h4.486L11.585 3 8.302 6.284 6.978 7.607l-.007.007-.993.993-.021.021a.102.102 0 0 0 0 .142l1.273 1.271c.04.037.102.037.142 0l.984-.983 4.643-4.644.001-.001v4.485a.1.1 0 0 0 .101.1L14.897 9a.1.1 0 0 0 .101-.1L15 3.099l-.001-.2L15 1.1z"/></svg>