<svg xmlns="http://www.w3.org/2000/svg" width="16" height="16" viewBox="0 0 16 16"><path d="M5.163 7.184c0 1.327-.996 2.151-2.586 2.151h-1.2v1.641H0V5.024h2.577c1.59 0 2.586.825 2.586 2.16zm-1.396 0c0-.654-.425-1.037-1.267-1.037H1.377v2.066H2.5c.842 0 1.267-.383 1.267-1.029zM5.338 5.024h2.705c1.946 0 3.282 1.173 3.282 2.976s-1.336 2.976-3.282 2.976H5.338V5.024zm2.637 4.822c1.182 0 1.954-.706 1.954-1.846 0-1.139-.771-1.845-1.954-1.845H6.716v3.69h1.259zM12.878 6.13v1.572h2.757v1.106h-2.757v2.167H11.5V5.024H16V6.13h-3.122z"/></svg>