<svg xmlns="http://www.w3.org/2000/svg" width="16" height="16" viewBox="0 0 16 16"><path d="M16 .851a.15.15 0 0 1-.15.149H.15A.15.15 0 0 1 0 .851v-.7A.15.15 0 0 1 .149 0h15.7A.15.15 0 0 1 16 .15v.701zm0 3a.15.15 0 0 1-.15.149H.15A.15.15 0 0 1 0 3.851v-.7A.15.15 0 0 1 .149 3h15.7a.15.15 0 0 1 .151.15v.701zm0 3a.15.15 0 0 1-.15.149H.15A.15.15 0 0 1 0 6.851v-.7A.15.15 0 0 1 .149 6h15.7a.15.15 0 0 1 .151.15v.701zm0 2.999a.15.15 0 0 1-.15.15H.15A.15.15 0 0 1 0 9.85v-.7A.15.15 0 0 1 .149 9h15.7a.15.15 0 0 1 .151.15v.7zm0 3.001a.15.15 0 0 1-.15.15H.15a.15.15 0 0 1-.15-.15v-.699a.15.15 0 0 1 .15-.15h15.7a.15.15 0 0 1 .15.15v.699zm0 2.999a.15.15 0 0 1-.15.15H.15a.15.15 0 0 1-.15-.15v-.7A.15.15 0 0 1 .149 15h15.7a.15.15 0 0 1 .15.15v.7z"/></svg>