<?xml version="1.0" encoding="utf-8"?>
<!-- Generator: Adobe Illustrator 16.0.0, SVG Export Plug-In . SVG Version: 6.00 Build 0)  -->
<!DOCTYPE svg PUBLIC "-//W3C//DTD SVG 1.1//EN" "http://www.w3.org/Graphics/SVG/1.1/DTD/svg11.dtd">
<svg version="1.1" id="Layer_1" xmlns="http://www.w3.org/2000/svg" xmlns:xlink="http://www.w3.org/1999/xlink" x="0px" y="0px"
	 width="16px" height="16px" viewBox="4 4 16 16" enable-background="new 4 4 16 16" xml:space="preserve">
<path d="M10.667,17c0,0.553-0.448,1-1,1c-0.552,0-1-0.447-1-1c0-0.552,0.448-1,1-1C10.219,16,10.667,16.448,10.667,17z M13,16
	c-0.552,0-1,0.447-1,1s0.448,1,1,1c0.552,0,1-0.447,1-1C14,16.448,13.552,16,13,16z M13.891,12.667L15.208,8H4l1.958,4.667H13.891z
	 M17.203,6l-2.288,8H6.517l0.56,1.333h8.826l2.316-8h1.286L20,6H17.203z"/>
</svg>
