<svg xmlns="http://www.w3.org/2000/svg" width="16" height="16" viewBox="0 0 16 16"><path d="M2.1 6h1.8a.1.1 0 0 0 .1-.1V4h1.9a.1.1 0 0 0 .1-.1V2.1a.1.1 0 0 0-.1-.1H2.1a.1.1 0 0 0-.1.1v3.8a.1.1 0 0 0 .1.1zm3.8 6H4v-1.9a.1.1 0 0 0-.1-.1H2.1a.1.1 0 0 0-.1.1l.001 1.8v.199L2 13.9a.1.1 0 0 0 .1.1h3.8a.1.1 0 0 0 .1-.1v-1.8a.1.1 0 0 0-.1-.1zm8.098-8.1L14 2.1a.1.1 0 0 0-.1-.1h-3.8a.1.1 0 0 0-.1.1l-.001 1.8a.1.1 0 0 0 .1.1H12v1.9a.1.1 0 0 0 .1.1h1.8a.1.1 0 0 0 .1-.1l-.002-1.8v-.2zM13.9 10h-1.8a.1.1 0 0 0-.1.1V12h-1.9a.1.1 0 0 0-.1.1v1.8a.1.1 0 0 0 .1.1h3.8a.1.1 0 0 0 .1-.1v-3.8a.1.1 0 0 0-.1-.1z"/></svg>