<svg xmlns="http://www.w3.org/2000/svg" width="16" height="16" viewBox="0 0 16 16"><path d="M8 0a8 8 0 1 0 0 16A8 8 0 0 0 8 0zm.956 12.449a.667.667 0 0 1-.165.322.686.686 0 0 1-.315.174c-.158.039-.32.058-.482.055-.2 0-.364-.018-.494-.055a.682.682 0 0 1-.311-.174.684.684 0 0 1-.164-.322 2.21 2.21 0 0 1-.047-.493 2.243 2.243 0 0 1 .047-.504.713.713 0 0 1 .165-.329.658.658 0 0 1 .311-.18 1.83 1.83 0 0 1 .494-.053c.162-.004.324.015.482.053.121.029.23.092.316.18a.721.721 0 0 1 .164.329c.031.137.047.304.047.504.002.165-.015.331-.048.493zm1.996-5.561a2.473 2.473 0 0 1-.474.815 2.29 2.29 0 0 1-.729.55c-.295.141-.614.23-.938.265l-.059 1.394c-.004.087-.072.15-.203.191a1.985 1.985 0 0 1-.569.063c-.157 0-.29-.002-.397-.012a1.091 1.091 0 0 1-.254-.038.279.279 0 0 1-.135-.078.223.223 0 0 1-.051-.128L7.08 8.225c-.007-.124 0-.249.021-.371a.478.478 0 0 1 .103-.229.373.373 0 0 1 .19-.118 1.04 1.04 0 0 1 .272-.033h.1c.224.005.447-.036.654-.122a1.242 1.242 0 0 0 .715-.793c.057-.188.084-.382.083-.578a1.894 1.894 0 0 0-.098-.629 1.261 1.261 0 0 0-.787-.811 1.964 1.964 0 0 0-.696-.111 2.62 2.62 0 0 0-.643.071c-.187.047-.347.1-.479.158-.113.047-.225.1-.333.157a.475.475 0 0 1-.203.071.152.152 0 0 1-.093-.032.246.246 0 0 1-.072-.118 1.338 1.338 0 0 1-.047-.243 3.548 3.548 0 0 1-.017-.4 2.124 2.124 0 0 1 .022-.365.352.352 0 0 1 .092-.187c.082-.068.173-.125.271-.167a3.41 3.41 0 0 1 .479-.18 5.48 5.48 0 0 1 .622-.139C7.465 3.02 7.704 3 7.952 3c.563 0 1.043.078 1.442.232.37.135.706.348.984.625.25.256.442.563.562.901.121.345.182.708.181 1.073a3.21 3.21 0 0 1-.169 1.057z"/></svg>