<svg xmlns="http://www.w3.org/2000/svg" width="16" height="16" viewBox="0 0 16 16"><path d="M15.85 0h-1.7a.15.15 0 0 0-.15.15v4.848H9.15a.149.149 0 0 0-.15.149v1.7c0 .083.067.149.15.149h.998l.002.001H16V.15a.15.15 0 0 0-.15-.15z"/><path d="M13.993 10.051c-.402 0-.742.236-.912.571a5.683 5.683 0 1 1-5.042-8.305 5.68 5.68 0 0 1 5.584 4.648h2.089C15.204 3.175 11.967.25 8.039.25A7.749 7.749 0 0 0 .289 8a7.75 7.75 0 0 0 7.75 7.75c2.979 0 5.54-1.694 6.836-4.158.088-.152.151-.319.151-.508 0-.571-.462-1.033-1.033-1.033z"/></svg>