<svg xmlns="http://www.w3.org/2000/svg" width="16" height="16" viewBox="0 0 16 16"><path d="M8 .197c-4.42 0-8 3.581-8 8a8.005 8.005 0 0 0 5.473 7.592c.397.074.547-.172.547-.387 0-.189-.01-.692-.013-1.359-2.225.48-2.692-1.07-2.692-1.07-.364-.926-.893-1.172-.893-1.172-.725-.494.059-.484.059-.484.803.057 1.226.822 1.226.822.713 1.225 1.873.867 2.33.666.071-.52.278-.869.507-1.07-1.775-.198-3.645-.887-3.645-3.953 0-.873.311-1.586.824-2.146-.093-.203-.363-1.018.068-2.119 0 0 .67-.215 2.2.82a7.629 7.629 0 0 1 2-.27 7.725 7.725 0 0 1 2 .27c1.52-1.035 2.188-.82 2.188-.82.428 1.104.156 1.916.078 2.117.538.584.832 1.352.82 2.146 0 3.072-1.871 3.75-3.648 3.945.277.239.537.729.537 1.479 0 1.069-.01 1.93-.01 2.19 0 .209.143.459.551.379a7.968 7.968 0 0 0 5.492-7.578 8 8 0 0 0-7.997-8L8 .197"/></svg>