<svg xmlns="http://www.w3.org/2000/svg" width="16" height="16" viewBox="0 0 16 16"><path d="M14.078 6.977c.283.409.445.894.467 1.394a2.18 2.18 0 0 1 1.33 2.781h-.001v.002a2.179 2.179 0 0 1-2.054 1.453H2.909a2.893 2.893 0 0 1-2.048-.842l4.631-3.664c.17.092.363.144.57.144.179 0 .354-.04.517-.115l2.207 1.934a1.212 1.212 0 1 0 2.284-.078l3.008-3.009zm-.685-.687l-3.01 3.009a1.22 1.22 0 0 0-.959.031L7.217 7.398a1.211 1.211 0 0 0-2.311-.729c-.07.218-.074.452-.016.673L.294 10.979A2.915 2.915 0 0 1 2.94 6.788a3.882 3.882 0 0 1 7.576-.594 2.661 2.661 0 0 1 2.877.096z"/></svg>