<svg xmlns="http://www.w3.org/2000/svg" width="16" height="16" viewBox="0 0 16 16"><path d="M15.558 1.743a6.717 6.717 0 0 1-2.084.796 3.283 3.283 0 0 0-5.596 2.992 9.305 9.305 0 0 1-6.767-3.43A3.273 3.273 0 0 0 .667 3.75a3.277 3.277 0 0 0 1.46 2.732 3.214 3.214 0 0 1-1.486-.41v.043a3.286 3.286 0 0 0 2.632 3.219c-.483.133-.989.15-1.482.057a3.29 3.29 0 0 0 3.065 2.279A6.579 6.579 0 0 1 0 13.029a9.248 9.248 0 0 0 5.032 1.474c6.037 0 9.341-5.001 9.341-9.339 0-.143-.005-.284-.011-.426A6.779 6.779 0 0 0 16 3.04a6.736 6.736 0 0 1-1.888.518 3.31 3.31 0 0 0 1.446-1.815z"/></svg>