<svg xmlns="http://www.w3.org/2000/svg" width="16" height="16" viewBox="0 0 16 16"><path d="M5.9 2H4.1a.1.1 0 0 0-.1.1v1.899H2.1a.1.1 0 0 0-.1.1V5.9a.1.1 0 0 0 .1.1h2.546l.1-.001.1-.001H5.9a.1.1 0 0 0 .1-.1V2.1a.1.1 0 0 0-.1-.1zm8 2H12V2.1a.1.1 0 0 0-.1-.1h-1.8a.1.1 0 0 0-.1.1v2.546l.001.1.001.1V5.9a.1.1 0 0 0 .1.1H13.9a.1.1 0 0 0 .1-.1V4.1a.1.1 0 0 0-.1-.1zM12 12.101v-.1h1.9a.1.1 0 0 0 .1-.1V10.1a.1.1 0 0 0-.1-.1h-2.547l-.1.001-.1.001H10.1a.1.1 0 0 0-.1.1V13.9a.1.1 0 0 0 .1.1h1.8a.1.1 0 0 0 .1-.1v-1.799zm-6.001-.847l-.001-.1V10.1a.1.1 0 0 0-.1-.1H2.1a.1.1 0 0 0-.1.1v1.8a.1.1 0 0 0 .1.1h1.899v1.9a.1.1 0 0 0 .1.1H5.9a.1.1 0 0 0 .1-.1v-2.547l-.001-.099z"/></svg>