<svg xmlns="http://www.w3.org/2000/svg" width="16" height="16" viewBox="0 0 16 16"><radialGradient id="a" cx="17759.565" cy="30340.098" r="740.233" gradientTransform="matrix(.0312 -.0016 .0014 .0265 -596.187 -761.388)" gradientUnits="userSpaceOnUse"><stop offset="0" stop-color="#fed576"/><stop offset=".263" stop-color="#f47133"/><stop offset=".609" stop-color="#bc3081"/><stop offset="1" stop-color="#4c63d2"/></radialGradient><path fill="url(#a)" d="M2.761.419a3.96 3.96 0 0 0-1.418.923c-.407.4-.723.883-.924 1.417-.198.508-.331 1.09-.371 1.942C.009 5.554 0 5.827 0 7.999c0 2.173.009 2.446.048 3.298.04.853.175 1.435.371 1.943.206.526.478.973.924 1.417.445.445.891.719 1.417.925.508.198 1.089.331 1.942.369C5.555 15.992 5.829 16 8 16c2.171 0 2.447-.008 3.296-.049.854-.038 1.434-.175 1.943-.369a3.927 3.927 0 0 0 1.416-.925 3.94 3.94 0 0 0 .924-1.417c.197-.509.332-1.091.369-1.943.042-.852.052-1.125.052-3.298 0-2.172-.01-2.446-.051-3.299-.037-.853-.174-1.435-.369-1.943a3.967 3.967 0 0 0-.92-1.415 3.938 3.938 0 0 0-1.418-.923c-.506-.199-1.09-.332-1.941-.37C10.449.009 10.176 0 8.003 0 5.832 0 5.557.009 4.706.049c-.856.035-1.437.172-1.945.37zm8.471 1.068c.781.036 1.203.166 1.488.277.346.128.66.333.92.598.279.28.453.547.598.92.111.283.24.706.277 1.486.037.842.045 1.097.045 3.233 0 2.139-.01 2.393-.045 3.234-.037.78-.166 1.204-.277 1.487a2.512 2.512 0 0 1-.598.92 2.474 2.474 0 0 1-.92.599c-.283.11-.707.24-1.488.277-.842.038-1.096.045-3.232.045-2.137 0-2.39-.011-3.232-.045-.78-.037-1.203-.167-1.486-.277a2.49 2.49 0 0 1-.919-.599 2.482 2.482 0 0 1-.599-.92c-.11-.283-.241-.707-.277-1.487-.04-.842-.046-1.096-.046-3.234 0-2.137.01-2.391.046-3.233.035-.781.166-1.203.277-1.486.146-.373.317-.642.598-.92.28-.28.546-.452.919-.598.283-.111.706-.241 1.486-.277C5.61 1.447 5.863 1.44 8 1.44s2.391.007 3.232.047z"/><radialGradient id="b" cx="17862.182" cy="30451.144" r="380.15" gradientTransform="matrix(.0312 -.0016 .0014 .0265 -595.793 -767.343)" gradientUnits="userSpaceOnUse"><stop offset="0" stop-color="#fed576"/><stop offset=".263" stop-color="#f47133"/><stop offset=".609" stop-color="#bc3081"/><stop offset="1" stop-color="#4c63d2"/></radialGradient><path fill="url(#b)" d="M3.893 8.002a4.108 4.108 0 1 0 8.216 0 4.11 4.11 0 0 0-8.216 0zm6.773 0a2.666 2.666 0 1 1-5.333 0 2.666 2.666 0 1 1 5.333 0z"/><circle fill="#654C9F" cx="12.273" cy="3.731" r=".96"/></svg>