<svg xmlns="http://www.w3.org/2000/svg" width="16" height="16" viewBox="0 0 16 16"><path fill="#FFF" d="M8.1 15.283c-.039 0-.078-.004-.117-.006-.024.002-.051.006-.078.006-.919 0-1.509-.417-2.077-.821-.395-.276-.768-.541-1.204-.612a3.836 3.836 0 0 0-.633-.054c-.37 0-.662.058-.875.099-.132.024-.242.049-.327.049-.089 0-.186-.021-.229-.162a4.05 4.05 0 0 1-.086-.358c-.065-.299-.113-.479-.238-.5-1.457-.226-1.875-.53-1.967-.752a.235.235 0 0 1-.022-.094.166.166 0 0 1 .138-.173c2.24-.367 3.246-2.658 3.287-2.756l.004-.012c.137-.277.164-.521.08-.719-.156-.362-.656-.522-.988-.628a2.856 2.856 0 0 1-.221-.073c-.663-.263-.718-.53-.69-.667.043-.235.355-.397.607-.397a.46.46 0 0 1 .183.037c.297.14.565.209.797.209.322 0 .461-.135.479-.151-.01-.151-.023-.313-.03-.476-.068-1.056-.15-2.375.185-3.126C5.083.896 7.213.72 7.842.72l.276-.002h.036c.633 0 2.766.176 3.771 2.43.335.752.255 2.068.188 3.127l-.006.047c-.01.143-.02.285-.023.428.018.016.146.141.438.15.222-.008.477-.078.754-.209a.57.57 0 0 1 .231-.045.75.75 0 0 1 .271.051l.001.003c.229.079.373.237.378.401.005.155-.113.391-.696.617a2.45 2.45 0 0 1-.219.074c-.335.104-.836.266-.989.627-.084.199-.058.438.08.72l.004.01c.042.097 1.047 2.387 3.288 2.758a.164.164 0 0 1 .136.172.345.345 0 0 1-.021.094c-.094.219-.51.523-1.969.749-.119.019-.164.175-.236.499-.025.12-.055.239-.088.357-.032.104-.098.156-.209.156h-.018c-.076 0-.188-.016-.324-.043a3.865 3.865 0 0 0-1.513-.039c-.438.07-.81.336-1.198.61-.578.404-1.165.821-2.085.821z"/><path d="M8.1 15.523c-.043 0-.086-.002-.131-.004-.021.004-.044.006-.064.004-.997 0-1.646-.459-2.218-.862-.373-.263-.722-.511-1.105-.572-.555-.094-1.104-.021-1.422.044-.137.026-.264.053-.373.053a.441.441 0 0 1-.46-.336c-.038-.132-.064-.258-.094-.377-.021-.093-.055-.252-.086-.32-1.264-.198-1.935-.48-2.104-.889A.575.575 0 0 1 0 12.089a.41.41 0 0 1 .341-.425c2.108-.348 3.063-2.521 3.104-2.614.113-.23.138-.404.082-.53-.11-.262-.565-.404-.836-.491-.087-.029-.17-.053-.236-.083-.782-.311-.891-.682-.84-.938.09-.479.77-.707 1.132-.533.405.188.78.205.922.148l-.019-.304c-.07-1.112-.156-2.465.204-3.27C4.917.663 7.174.477 7.839.477l.272-.002c.709 0 2.97.187 4.033 2.573.357.807.271 2.156.207 3.241l-.021.332a.64.64 0 0 0 .193.037c.223-.022.441-.086.642-.188.299-.14.513-.076.696 0 .313.111.523.357.533.625.008.336-.28.623-.854.848a1.74 1.74 0 0 1-.23.08c-.289.094-.729.231-.84.491-.057.131-.029.303.072.516.049.113 1.004 2.285 3.113 2.636a.408.408 0 0 1 .342.425.59.59 0 0 1-.043.176c-.173.403-.842.688-2.104.887a2.524 2.524 0 0 0-.084.318c-.026.127-.06.25-.096.373a.432.432 0 0 1-.439.329 2.008 2.008 0 0 1-.394-.045 3.755 3.755 0 0 0-1.422-.037c-.383.063-.729.312-1.103.571-.566.4-1.214.86-2.212.86zm-.138-.485l.138.003c.842 0 1.375-.377 1.939-.775.396-.283.811-.574 1.302-.656a4.31 4.31 0 0 1 1.597.041c.119.022.217.037.28.037.028-.101.054-.211.077-.321.073-.329.141-.642.438-.688 1.279-.197 1.646-.445 1.744-.553-2.295-.441-3.322-2.779-3.361-2.882-.172-.343-.198-.65-.088-.916.199-.466.766-.646 1.14-.765.075-.021.146-.045.202-.066.433-.171.546-.329.544-.389 0-.043-.069-.127-.214-.179a.445.445 0 0 0-.323-.017 2.262 2.262 0 0 1-.849.232c-.381-.017-.564-.176-.613-.224l-.076-.076.031-.536c.066-1.078.146-2.363-.161-3.063C10.765 1.124 8.753.959 8.159.959l-.316.002c-.592 0-2.598.165-3.542 2.284-.313.697-.231 1.983-.166 3.014l.034.582-.071.076c-.053.055-.25.227-.65.227-.271 0-.572-.078-.902-.232a.168.168 0 0 0-.08-.015c-.168 0-.354.114-.37.199-.01.044.071.212.541.397.054.022.129.044.203.069.374.119.939.297 1.139.764.111.264.082.57-.086.917-.043.096-1.069 2.433-3.36 2.878.11.113.483.357 1.741.555.295.047.365.357.438.688.023.11.051.225.084.344.066-.015.163-.032.271-.058.225-.043.529-.104.925-.104.22 0 .446.02.672.057.491.082.885.359 1.302.654.564.401 1.1.778 1.938.778l.058.003z"/></svg>